#!OML:ASF X:\für Bonn\!DataBase\2005_08_12_Daniel\c3d\Daniel.ASF
:FULLY-SPECIFIED
:DEGREES
16
root 18.0277 16.0783 16.3687 707.871 -133.05 -3.5796
lowerback 40.5509 2.30058 -0.088074
upperback 10.3967 -0.174369 -3.73621
thorax -7.99142 -1.05945 -3.72375
lowerneck -3.33507 1.53321 -2.97098
upperneck 7.1757 2.27557 -1.84816
head 2.84895 0.947963 -0.00479444
rclavicle -6.83819e-014 2.78299e-014
rhumerus -37.2827 -2.83011 -79.3328
rradius 75.8728
rwrist 11.9535
rhand -34.3021 9.00265
rfingers 7.12502
rthumb -7.47116 -20.8454
lclavicle -6.83819e-014 2.78299e-014
lhumerus 147.442 152.282 251.001
lradius 75.9518
lwrist -27.4584
lhand -28.798 5.17891
lfingers 7.12502
lthumb -2.15666 35.1478
rfemur -4.80384 1.06829 23.5253
rtibia 56.8569
rfoot -32.0084 1.37001
rtoes -5.99458
lfemur -30.4754 -4.87519 -22.2077
ltibia 50.1477
lfoot -16.6976 -4.22801
ltoes -9.73927
17
root 17.9454 16.081 16.2902 707.771 -132.985 -3.61439
lowerback 40.3868 2.42274 -0.171683
upperback 10.408 -0.0532995 -3.80747
thorax -7.92154 -0.998932 -3.80571
lowerneck -3.29154 1.48991 -2.8525
upperneck 7.31286 2.21024 -1.85991
head 2.88907 0.914878 -0.0310542
rclavicle -4.45278e-014 3.33958e-014
rhumerus -37.2149 -2.8771 -79.3201
rradius 75.8293
rwrist 11.8049
rhand -34.2467 9.01132
rfingers 7.12502
rthumb -7.41769 -20.8386
lclavicle -4.45278e-014 3.33958e-014
lhumerus 147.115 152.155 250.611
lradius 75.9611
lwrist -27.3554
lhand -28.7667 5.18384
lfingers 7.12502
lthumb -2.1264 35.153
rfemur -4.11793 0.861152 23.4246
rtibia 56.6683
rfoot -32.0476 1.58479
rtoes -5.78751
lfemur -30.4364 -5.40552 -22.0704
ltibia 48.4795
lfoot -16.6298 -4.0877
ltoes -10.7282
18
root 17.8648 16.0796 16.2126 707.619 -132.907 -3.60704
lowerback 40.2523 2.54067 -0.266518
upperback 10.4308 0.0593758 -3.83513
thorax -7.84744 -0.944724 -3.83115
lowerneck -3.27101 1.46338 -2.83983
upperneck 7.4478 2.17135 -1.82839
head 2.93098 0.893414 -0.0241759
rclavicle 1.35174e-014 5.56597e-014
rhumerus -37.1258 -2.86651 -79.2654
rradius 75.7472
rwrist 11.5845
rhand -34.2344 9.09748
rfingers 7.12502
rthumb -7.40579 -20.7529
lclavicle 1.35174e-014 5.56597e-014
lhumerus 146.727 152.025 250.227
lradius 76.0187
lwrist -27.3516
lhand -28.6557 5.26826
lfingers 7.12502
lthumb -2.0192 35.2385
rfemur -3.43624 0.618935 23.35
rtibia 56.495
rfoot -32.0603 1.76643
rtoes -5.6872
lfemur -30.3807 -6.03817 -21.8437
ltibia 46.8787
lfoot -16.6426 -4.04758
ltoes -11.2125
19
root 17.7816 16.0767 16.1352 707.522 -132.853 -3.69341
lowerback 40.1273 2.679 -0.387077
upperback 10.4624 0.177193 -3.90688
thorax -7.76703 -0.889133 -3.89201
lowerneck -3.25444 1.42068 -2.72716
upperneck 7.54489 2.10909 -1.85135
head 2.96263 0.86249 -0.0529461
rclavicle -5.92378e-014 6.36111e-015
rhumerus -36.963 -2.93459 -79.2781
rradius 75.6366
rwrist 11.4601
rhand -34.1506 9.03592
rfingers 7.12502
rthumb -7.32498 -20.8173
lclavicle -5.92378e-014 6.36111e-015
lhumerus 146.412 151.91 249.833
lradius 75.9993
lwrist -27.2532
lhand -28.6237 5.22816
lfingers 7.12502
lthumb -1.9883 35.1986
rfemur -2.73911 0.373382 23.1839
rtibia 56.3408
rfoot -32.113 1.96037
rtoes -5.7177
lfemur -30.2936 -6.6921 -21.6838
ltibia 45.3341
lfoot -16.6737 -3.96995
ltoes -12.0733
20
root 17.6983 16.0725 16.0572 707.395 -132.776 -3.66743
lowerback 39.9789 2.78371 -0.42568
upperback 10.4767 0.297278 -3.95857
thorax -7.69745 -0.829268 -3.9749
lowerneck -3.29591 1.37872 -2.66687
upperneck 7.701 2.05052 -1.82447
head 3.02422 0.832144 -0.0559109
rclavicle -3.02153e-014 7.23576e-014
rhumerus -36.8504 -3.01953 -79.2688
rradius 75.5242
rwrist 11.3522
rhand -34.0956 9.08563
rfingers 7.12502
rthumb -7.27183 -20.7694
lclavicle -3.02153e-014 7.23576e-014
lhumerus 146.12 151.826 249.452
lradius 75.9063
lwrist -27.2795
lhand -28.6682 5.29212
lfingers 7.12502
lthumb -2.03131 35.2622
rfemur -2.10255 0.129877 23.1029
rtibia 56.22
rfoot -32.1614 2.16469
rtoes -5.61018
lfemur -30.2678 -7.31993 -21.432
ltibia 43.8521
lfoot -16.762 -3.90266
ltoes -13.1207
21
root 17.6136 16.065 15.9795 707.279 -132.75 -3.6674
lowerback 39.8398 2.91226 -0.539893
upperback 10.4949 0.417414 -3.97882
thorax -7.62617 -0.771888 -3.98408
lowerneck -3.35135 1.36128 -2.75771
upperneck 7.83191 2.02879 -1.72613
head 3.0775 0.818801 -0.00841682
rclavicle -1.59028e-015 2.38542e-014
rhumerus -36.6668 -3.01404 -79.249
rradius 75.4014
rwrist 11.2598
rhand -33.9991 9.14073
rfingers 7.12502
rthumb -7.17868 -20.7175
lclavicle -1.59028e-015 2.38542e-014
lhumerus 145.743 151.663 249.115
lradius 75.9277
lwrist -27.2656
lhand -28.6433 5.25956
lfingers 7.12502
lthumb -2.00723 35.2299
rfemur -1.47741 -0.0601494 23.0022
rtibia 56.1296
rfoot -32.2316 2.41728
rtoes -5.49053
lfemur -30.2218 -7.93231 -21.1993
ltibia 42.4298
lfoot -16.9708 -3.61888
ltoes -14.4251
22
root 17.5286 16.0522 15.9014 707.171 -132.672 -3.66552
lowerback 39.7021 3.00154 -0.60354
upperback 10.5252 0.502018 -4.0442
thorax -7.54441 -0.730511 -4.05353
lowerneck -3.42584 1.32594 -2.76233
upperneck 7.94303 1.98267 -1.67823
head 3.12936 0.794745 0.00718561
rclavicle 6.79844e-014 3.33958e-014
rhumerus -36.496 -3.12906 -79.307
rradius 75.2641
rwrist 11.2403
rhand -33.9967 9.17984
rfingers 7.12502
rthumb -7.17635 -20.6785
lclavicle 6.79844e-014 3.33958e-014
lhumerus 145.394 151.587 248.727
lradius 75.9644
lwrist -27.1647
lhand -28.6346 5.33925
lfingers 7.12502
lthumb -1.99879 35.3096
rfemur -0.885342 -0.321072 22.8957
rtibia 56.0928
rfoot -32.317 2.58811
rtoes -5.54568
lfemur -30.1646 -8.5225 -20.9927
ltibia 41.099
lfoot -17.2988 -3.3056
ltoes -15.6216
23
root 17.4422 16.0365 15.8231 707.111 -132.629 -3.69739
lowerback 39.5645 3.13247 -0.675605
upperback 10.5471 0.637968 -4.09792
thorax -7.46819 -0.664686 -4.12617
lowerneck -3.51283 1.26384 -2.80535
upperneck 8.05934 1.90178 -1.60325
head 3.18514 0.753297 0.037005
rclavicle -9.81996e-014 6.83819e-014
rhumerus -36.3787 -3.23276 -79.3518
rradius 75.2176
rwrist 11.2223
rhand -33.9545 9.1444
rfingers 7.12502
rthumb -7.1356 -20.7153
lclavicle -9.81996e-014 6.83819e-014
lhumerus 145.095 151.533 248.442
lradius 75.9951
lwrist -27.1805
lhand -28.5602 5.45355
lfingers 7.12502
lthumb -1.92691 35.4246
rfemur -0.314914 -0.572493 22.7375
rtibia 56.0747
rfoot -32.4246 2.86445
rtoes -5.44207
lfemur -30.0897 -9.20487 -20.7446
ltibia 39.8787
lfoot -17.6937 -2.77137
ltoes -15.797
24
root 17.3572 16.0196 15.7458 706.992 -132.572 -3.63457
lowerback 39.4313 3.2102 -0.682016
upperback 10.5416 0.739586 -4.15494
thorax -7.4253 -0.611969 -4.22315
lowerneck -3.59718 1.23842 -2.87145
upperneck 8.17098 1.86784 -1.48186
head 3.23804 0.736476 0.0876477
rclavicle -5.24792e-014 1.27222e-013
rhumerus -36.3004 -3.27087 -79.4155
rradius 75.1767
rwrist 11.1953
rhand -33.9128 8.9784
rfingers 7.12502
rthumb -7.09536 -20.8827
lclavicle -5.24792e-014 1.27222e-013
lhumerus 144.704 151.543 248.07
lradius 76.0578
lwrist -27.0163
lhand -28.5845 5.52819
lfingers 7.12502
lthumb -1.95038 35.499
rfemur 0.216314 -0.84272 22.6568
rtibia 56.0797
rfoot -32.5468 3.06871
rtoes -5.44601
lfemur -30.0704 -9.7257 -20.4685
ltibia 38.7863
lfoot -18.0204 -2.37365
ltoes -16.0607
25
root 17.2718 16.0032 15.6649 706.938 -132.533 -3.60227
lowerback 39.2558 3.29968 -0.737796
upperback 10.5396 0.839059 -4.21348
thorax -7.3653 -0.560146 -4.29439
lowerneck -3.58983 1.19766 -3.05126
upperneck 8.15327 1.81271 -1.32178
head 3.22794 0.710536 0.168581
rclavicle 6.83819e-014 -5.96354e-014
rhumerus -36.2059 -3.37117 -79.5207
rradius 75.1423
rwrist 11.2508
rhand -33.8206 8.98094
rfingers 7.12502
rthumb -7.00635 -20.8831
lclavicle 6.83819e-014 -5.96354e-014
lhumerus 144.289 151.509 247.739
lradius 76.2055
lwrist -26.8773
lhand -28.4841 5.81372
lfingers 7.12502
lthumb -1.8535 35.7854
rfemur 0.721554 -1.056 22.5873
rtibia 56.0726
rfoot -32.6631 3.24442
rtoes -5.43521
lfemur -30.1049 -10.1385 -20.2047
ltibia 37.8099
lfoot -18.3441 -1.98041
ltoes -15.8625
26
root 17.1853 15.9849 15.5841 706.851 -132.491 -3.52319
lowerback 39.0847 3.38669 -0.762067
upperback 10.5596 0.94778 -4.2454
thorax -7.28072 -0.50541 -4.35659
lowerneck -3.6168 1.16298 -3.31991
upperneck 8.15053 1.76994 -1.1182
head 3.2288 0.689195 0.279928
rclavicle -4.05521e-014 9.78021e-014
rhumerus -36.1241 -3.41205 -79.6014
rradius 75.202
rwrist 11.3057
rhand -33.7919 8.84035
rfingers 7.12502
rthumb -6.97868 -21.0246
lclavicle -4.05521e-014 9.78021e-014
lhumerus 143.943 151.486 247.466
lradius 76.3049
lwrist -26.7692
lhand -28.5469 6.03277
lfingers 7.12502
lthumb -1.91413 36.0039
rfemur 1.22391 -1.28316 22.5456
rtibia 56.0752
rfoot -32.8167 3.40928
rtoes -5.63116
lfemur -30.1564 -10.4553 -19.9427
ltibia 36.9347
lfoot -18.5678 -1.55769
ltoes -15.0767
27
root 17.0973 15.967 15.5012 706.777 -132.467 -3.39424
lowerback 38.887 3.47372 -0.734491
upperback 10.5457 1.08312 -4.30117
thorax -7.22217 -0.433746 -4.48172
lowerneck -3.58624 1.11456 -3.53435
upperneck 8.15829 1.7002 -0.886389
head 3.22325 0.657171 0.389657
rclavicle -4.96962e-014 -3.89618e-014
rhumerus -36.1104 -3.53054 -79.7166
rradius 75.2243
rwrist 11.386
rhand -33.8279 8.75869
rfingers 7.12502
rthumb -7.01347 -21.1051
lclavicle -4.96962e-014 -3.89618e-014
lhumerus 143.577 151.598 247.192
lradius 76.4645
lwrist -26.6066
lhand -28.4562 6.38656
lfingers 7.12502
lthumb -1.82653 36.3585
rfemur 1.68388 -1.49608 22.5522
rtibia 56.0567
rfoot -32.93 3.53842
rtoes -5.73247
lfemur -30.261 -10.7945 -19.6183
ltibia 36.1485
lfoot -18.8028 -1.06985
ltoes -13.9348
